<svg id="Laag_1" width="110" height="33" data-name="Laag 1" xmlns="http://www.w3.org/2000/svg" xmlns:xlink="http://www.w3.org/1999/xlink" viewBox="0 0 926.32 200"><defs><style>.cls-1,.cls-2{fill-rule:evenodd;}.cls-1{fill:url(#Naamloos_verloop_12);}.cls-2{fill:#fff;}</style><linearGradient id="Naamloos_verloop_12" x1="93.92" y1="14.87" x2="93.92" y2="197.95" gradientTransform="matrix(1, 0, 0, -1, 0, 202)" gradientUnits="userSpaceOnUse"><stop offset="0" stop-color="#fa233b"/><stop offset="1" stop-color="#fb5c74"/></linearGradient></defs><title>Apple Music</title><path d="M285,152.44H249.57l-8.51,25.09h-15l33.52-92.8H275.1l33.52,92.8H293.39Zm-31.73-11.57H281.3l-13.81-40.68h-.38Z"/><path d="M381,143.71c0,21-11.27,34.57-28.22,34.57-9.63,0-17.32-4.33-21.27-11.8h-.3V200H317.28V109.89h13.44v11.27h.22c3.89-7.24,12.1-11.94,21.58-11.94C369.62,109.15,381,122.73,381,143.71Zm-14.33,0c0-13.66-7.09-22.69-17.84-22.69S331,130.2,331,143.71s7.17,22.77,17.77,22.77C359.61,166.48,366.63,157.52,366.63,143.71Z"/><path d="M455.32,143.71c0,21-11.27,34.57-28.22,34.57-9.63,0-17.32-4.33-21.28-11.8h-.3V200H391.64V109.89h13.44v11.27h.22c3.88-7.24,12.09-11.94,21.58-11.94C444,109.15,455.32,122.73,455.32,143.71Zm-14.26,0c0-13.66-7.09-22.69-17.84-22.69s-17.77,9.18-17.77,22.69,7.17,22.77,17.77,22.77S441.06,157.52,441.06,143.71Z"/><path d="M466.52,84.73H480.4v92.8H466.52Z"/><path d="M552.67,157.67c-1.87,12.24-13.81,20.68-29.12,20.68-19.71,0-31.87-13.21-31.87-34.34S504,109,523,109c18.73,0,30.46,12.84,30.46,33.37v4.77H505.64V148c0,11.57,7.24,19.18,18.21,19.18,7.69,0,13.74-3.66,15.61-9.48Zm-47-20.23h33.82c-.3-10.38-6.94-17.17-16.57-17.17S506.46,127.21,505.71,137.44Z"/><path d="M673.24,177.53V109.22h-.45l-28,67.56H634.12l-28.07-67.56h-.45v68.31H592.46V84.73h16.65l30,73.24h.52l29.94-73.24H686.3v92.8Z"/><path d="M760.36,177.53H747.07V165.88h-.3c-3.88,8.14-10.6,12.4-21,12.4-14.7,0-23.74-9.49-23.74-25V109.89h13.89v40.69c0,10.3,4.85,15.75,14.48,15.75,10,0,16.05-6.94,16.05-17.47v-39h13.89Z"/><path d="M799.85,109.15c15,0,25.76,8.28,26.06,20.23H812.84c-.6-6-5.67-9.63-13.36-9.63s-12.54,3.5-12.54,8.73c0,4,3.35,6.72,10.37,8.51l11.35,2.61c13.66,3.29,18.74,8.29,18.74,18.22,0,12.24-11.57,20.6-28.07,20.6-16,0-26.65-8.13-27.7-20.53h13.74c1,6.5,6.19,10,14.63,10,8.29,0,13.51-3.44,13.51-8.81,0-4.18-2.54-6.42-9.63-8.21l-12.09-3q-18.37-4.48-18.37-18.59C773.35,117.28,784.1,109.15,799.85,109.15Z"/><path d="M838.22,92.05a8.1,8.1,0,1,1,8.07,7.91A8,8,0,0,1,838.22,92.05Zm1.12,17.84h13.89v67.64H839.34Z"/><path d="M913,133.18c-1.2-7.16-6.8-12.46-16-12.46-10.67,0-17.77,9-17.77,23,0,14.41,7.17,23.07,17.85,23.07,8.58,0,14.25-4.33,15.82-12.17h13.37c-1.57,14.18-12.92,23.74-29.34,23.74-19.26,0-31.88-13.21-31.88-34.64,0-21.05,12.62-34.64,31.73-34.64,17.39,0,28.14,10.9,29.34,24.11Z"/><path d="M258.68,56.29H230.46V11.05h7V49.79h21.2Z"/><path d="M266.82,12a4.34,4.34,0,1,1,4.33,4.11A4.1,4.1,0,0,1,266.82,12Zm1,10.15h6.72V56.29h-6.72Z"/><path d="M297.87,21.5c7.69,0,12.69,3.58,13.37,9.56h-6.42c-.6-2.54-3.07-4.11-6.87-4.11s-6.57,1.79-6.57,4.48c0,2,1.71,3.36,5.45,4.18L302.5,37c6.5,1.5,9.56,4.33,9.56,9.34,0,6.42-6,10.75-14.11,10.75s-13.44-3.66-14-9.71h6.72c.82,2.61,3.36,4.26,7.47,4.26s7.16-1.87,7.16-4.63c0-2-1.56-3.36-5-4.18l-6-1.35c-6.5-1.56-9.48-4.48-9.48-9.55C284.58,25.76,290.11,21.5,297.87,21.5Z"/><path d="M329.75,13.66v8.66h7.39V28h-7.39V45.54c0,3.58,1.49,5.15,4.85,5.15a24.3,24.3,0,0,0,2.54-.15v5.6a19.31,19.31,0,0,1-3.66.37C326,56.51,323,53.9,323,47.33V28h-5.45V22.32H323V13.66Z"/><path d="M374.47,47c-1.57,6.12-7,9.86-14.78,9.86-9.78,0-15.76-6.72-15.76-17.62s6.13-17.84,15.76-17.84,15.23,6.49,15.23,17.17v2.46H350.8v.37c.23,6,3.74,9.78,9.11,9.78,4.11,0,6.87-1.49,8.14-4.1h6.42Zm-23.67-11h17.25c-.15-5.38-3.44-8.81-8.36-8.81S351.18,30.76,350.8,36.06Z"/><path d="M383.87,22.17h6.5v5.45h.52c1.64-3.81,5-6,10.16-6,7.61,0,11.79,4.55,11.79,12.69V56.36h-6.72V35.83c0-5.45-2.39-8.21-7.39-8.21s-8.14,3.29-8.14,8.66V56.22h-6.72Z"/><path d="M440,39.19c0-11,6.13-17.69,16.13-17.69s16.05,6.72,16.05,17.69S466.07,57,456.14,57,440,50.24,440,39.19Zm25.24,0c0-7.39-3.36-11.72-9.18-11.72s-9.19,4.33-9.19,11.72,3.29,11.72,9.19,11.72S465.25,46.58,465.25,39.19Z"/><path d="M481.22,22.17h6.5v5.45h.52c1.64-3.81,5-6,10.15-6,7.62,0,11.8,4.55,11.8,12.69V56.36h-6.72V35.83c0-5.45-2.39-8.21-7.39-8.21s-8.14,3.29-8.14,8.66V56.22h-6.72Z"/><path class="cls-1" d="M187.83,58.75V52c0-1.86,0-3.8-.07-5.67A76.89,76.89,0,0,0,186.64,34a40.72,40.72,0,0,0-3.89-11.72,39.62,39.62,0,0,0-7.24-10,38.41,38.41,0,0,0-10-7.24,41,41,0,0,0-11.72-3.89A86.93,86.93,0,0,0,141.47.07C139.6.07,137.74,0,135.8,0H52c-1.86,0-3.8,0-5.67.07A85.87,85.87,0,0,0,34,1.19,40.22,40.22,0,0,0,22.32,5.08,39,39,0,0,0,5.08,22.32,40.22,40.22,0,0,0,1.19,34,86.93,86.93,0,0,0,.07,46.36C.07,48.23,0,50.17,0,52V135.8c0,1.86,0,3.8.07,5.67a76.89,76.89,0,0,0,1.12,12.32,41,41,0,0,0,3.89,11.72,39.62,39.62,0,0,0,7.24,10,38.41,38.41,0,0,0,10,7.24A38,38,0,0,0,34,186.64a86.93,86.93,0,0,0,12.32,1.12c1.87.07,3.81.07,5.67.07H135.8c1.86,0,3.8,0,5.67-.07a76.89,76.89,0,0,0,12.32-1.12,40.72,40.72,0,0,0,11.72-3.89,39.62,39.62,0,0,0,10-7.24,38.41,38.41,0,0,0,7.24-10,40.72,40.72,0,0,0,3.89-11.72,86.93,86.93,0,0,0,1.12-12.32c.07-1.87.07-3.81.07-5.67V58.75Z"/><g id="Glyph"><path class="cls-2" d="M132.81,28.67l-5,.82L72,40.84h0a7.55,7.55,0,0,0-3.51,1.56A5.83,5.83,0,0,0,66.59,46c0,.37-.07,1-.07,1.94v69.88a6.63,6.63,0,0,1-1.27,4.55,6.31,6.31,0,0,1-4.11,2.09c-1.19.22-2.46.52-3.66.75a58.94,58.94,0,0,0-10.3,2.61,17.55,17.55,0,0,0-6.12,3.88,14.67,14.67,0,0,0-3.88,11.65A14.52,14.52,0,0,0,48.6,156.18c2.76.59,5.75.37,10.08-.52a20.13,20.13,0,0,0,6.49-2.39,16.56,16.56,0,0,0,5.15-4.78,18.29,18.29,0,0,0,2.77-6.42,31.36,31.36,0,0,0,.59-6.94V74.51c0-3.29.9-4.11,3.51-4.71,0,0,46.44-9.33,48.6-9.78,3-.59,4.48.3,4.48,3.44v41.36c0,1.64,0,3.28-1.12,4.62a6.2,6.2,0,0,1-4.1,2.09c-1.2.23-2.47.53-3.66.75a60.29,60.29,0,0,0-10.3,2.61,17.66,17.66,0,0,0-6.13,3.89,15.06,15.06,0,0,0-4,11.64,14.76,14.76,0,0,0,4.78,9.33,14,14,0,0,0,6.79,3.44c2.77.59,5.75.37,10.08-.52a18.47,18.47,0,0,0,6.5-2.39,16.67,16.67,0,0,0,5.15-4.78,18.27,18.27,0,0,0,2.76-6.42,31.28,31.28,0,0,0,.52-6.94V33.67C137.51,30.38,135.8,28.44,132.81,28.67Z"/></g></svg>