<svg id="Laag_1" width="110" height="33" data-name="Laag 1" xmlns="http://www.w3.org/2000/svg" viewBox="0 0 683.46 200"><defs><style>.cls-1{fill:#01ff95;}</style></defs><title>Beatport_Green</title><path class="cls-1" d="M140.65,124.17A50.62,50.62,0,0,1,89.79,175c-28.13,0-50.58-22.16-50.58-50.86A50.9,50.9,0,0,1,52.43,89.79L18,124.17l-18-18L38.79,67.77a27.17,27.17,0,0,0,8-19.61V0H72.17V48.16A51.14,51.14,0,0,1,56.69,85.67l-1.14,1.14a50.89,50.89,0,0,1,85.1,37.36m-23,0c0-15.06-12.51-27.28-27.85-27.28a27.42,27.42,0,1,0,27.85,27.28"/><path class="cls-1" d="M224.17,74.74q16,0,24.84,6.68t8.84,18.65q0,8.78-4.67,14.41t-13.43,7.58q21.86,3.76,21.86,23,0,12.66-9.4,19.9t-26.79,7.23h-37V74.74ZM204.4,116.08h20.18q8.22,0,12.74-3.76a12.68,12.68,0,0,0,4.52-10.3,12.49,12.49,0,0,0-4.52-10.23q-4.53-3.69-12.74-3.69H204.4Zm0,42.59h21.16q9.47,0,14.54-3.83a12.57,12.57,0,0,0,5.08-10.65q0-7.09-5.15-11t-14.47-3.9H204.4Z"/><path class="cls-1" d="M269.06,117.4a31.24,31.24,0,0,1,12.25-12.8,35.44,35.44,0,0,1,18-4.53,38.08,38.08,0,0,1,18.16,4.18,31.07,31.07,0,0,1,12.39,11.83,35.63,35.63,0,0,1,4.66,18,40.12,40.12,0,0,1-.42,5.71H280.4v.83q.56,9.33,5.85,14.75t14.05,5.43A20.06,20.06,0,0,0,312,157.48a15.45,15.45,0,0,0,6.27-9.25h15A28.83,28.83,0,0,1,322.78,166q-8.56,7-21.36,7A39.94,39.94,0,0,1,282,168.48a31.59,31.59,0,0,1-12.8-12.74,38.82,38.82,0,0,1-4.53-19.06,40.65,40.65,0,0,1,4.39-19.28m50.17,11.34q-1-7.79-6.19-12.18a19.77,19.77,0,0,0-13.15-4.38,19.14,19.14,0,0,0-12.74,4.52,17.66,17.66,0,0,0-6.19,12Z"/><path class="cls-1" d="M407.35,159.08v13.09h-7.94q-7,0-10-2.93c-2-2-3.07-4.77-3.07-8.49Q378.26,173,362.81,173q-12,0-19.2-5.57t-7.24-15.3q0-11,7.79-16.92t22.69-5.91H384.8V125a11.47,11.47,0,0,0-4.17-9.39q-4.19-3.41-11.55-3.41A19,19,0,0,0,358.29,115a11.27,11.27,0,0,0-5.08,7.59H338.46A22.19,22.19,0,0,1,347.92,106q8.35-5.92,21.85-5.92,14.34,0,22.13,6.68T399.69,126v28.11q0,5,4.74,5ZM384.8,140.43H366.15q-7,0-10.71,2.72c-2.51,1.81-3.76,4.47-3.76,8a8.92,8.92,0,0,0,3.55,7.38q3.54,2.78,9.67,2.78,9.33,0,14.54-5t5.36-13.36Z"/><path class="cls-1" d="M413.26,114.13H400.87V100.91h12.39V81h15.17v19.9h17.12v13.22H428.43v37.16q0,4.17,1.67,5.91c1.11,1.17,3,1.74,5.71,1.74h11.41v13.23H432.74q-10.15,0-14.82-4.74t-4.66-14.61Z"/><path class="cls-1" d="M506.72,104.46a30.4,30.4,0,0,1,12,12.66A41.53,41.53,0,0,1,523,136.54a40.9,40.9,0,0,1-4.31,19.13,31.4,31.4,0,0,1-12,12.81,33.61,33.61,0,0,1-17.4,4.52,30.46,30.46,0,0,1-13.78-2.92,24.45,24.45,0,0,1-9.32-7.94V200h-15V100.91h13.08l1.81,10.57q8.63-11.4,23.24-11.41a34.32,34.32,0,0,1,17.4,4.39m-4.8,49.19q5.77-6.68,5.78-17.11t-5.78-17.12a19.2,19.2,0,0,0-15.1-6.54q-9.33,0-15,6.47t-5.71,16.91q0,10.71,5.71,17.39a18.77,18.77,0,0,0,15,6.68,19,19,0,0,0,15.1-6.68"/><path class="cls-1" d="M544.92,168.48a31.52,31.52,0,0,1-12.8-12.81,39.23,39.23,0,0,1-4.53-19.13,38.93,38.93,0,0,1,4.53-19,31.91,31.91,0,0,1,12.8-12.87,41.54,41.54,0,0,1,38,0,31.91,31.91,0,0,1,12.8,12.87,38.93,38.93,0,0,1,4.52,19,39.22,39.22,0,0,1-4.52,19.13,31.52,31.52,0,0,1-12.8,12.81,42.19,42.19,0,0,1-38,0m34.24-14.89q5.77-6.61,5.78-17.05t-5.78-17q-5.77-6.61-15.24-6.61t-15.17,6.61q-5.71,6.62-5.71,17t5.71,17.05q5.7,6.6,15.17,6.61t15.24-6.61"/><path class="cls-1" d="M644.78,100.91v14H638.1q-9.33,0-13.5,6.06t-4.18,15.38v35.77h-15V100.91h13.36l1.67,10.71a22.63,22.63,0,0,1,7.94-7.86q4.86-2.85,13.08-2.85Z"/><path class="cls-1" d="M649.64,81h15v19.9h17.26v13.22H664.67v37.16q0,4.17,1.67,5.91c1.12,1.17,3,1.74,5.71,1.74h11.41v13.22H669q-10.17,0-14.75-4.73t-4.6-14.61Z"/></svg>