<svg id="Laag_1" width="110" height="33" data-name="Laag 1" xmlns="http://www.w3.org/2000/svg" xmlns:xlink="http://www.w3.org/1999/xlink" viewBox="0 0 1030.03 200"><defs><style>.cls-1{fill:#fff;}.cls-2{fill:#29ab70;}.cls-3{fill:url(#Naamloos_verloop_10);}.cls-4{fill:url(#Naamloos_verloop_2);}.cls-5{fill:url(#Naamloos_verloop_3);}.cls-6{fill:url(#Naamloos_verloop_4);}.cls-7{fill:url(#Naamloos_verloop_5);}.cls-8{fill:url(#Naamloos_verloop_6);}.cls-9{fill:url(#Naamloos_verloop_7);}.cls-10{fill:url(#Naamloos_verloop_8);}.cls-11{fill:url(#Naamloos_verloop_9);}</style><linearGradient id="Naamloos_verloop_10" x1="185.09" y1="73.36" x2="179.34" y2="105.93" gradientTransform="matrix(1, 0, 0, -1, 0, 202)" gradientUnits="userSpaceOnUse"><stop offset="0" stop-color="#2c8c9d"/><stop offset="0.04" stop-color="#298e9a"/><stop offset="0.39" stop-color="#129c83"/><stop offset="0.72" stop-color="#05a475"/><stop offset="1" stop-color="#00a770"/></linearGradient><linearGradient id="Naamloos_verloop_2" x1="159.47" y1="42.17" x2="204.97" y2="65.35" gradientTransform="matrix(1, 0, 0, -1, 0, 202)" gradientUnits="userSpaceOnUse"><stop offset="0" stop-color="#2839ba"/><stop offset="1" stop-color="#148cb3"/></linearGradient><linearGradient id="Naamloos_verloop_3" y1="17.86" x2="44.17" y2="17.86" gradientTransform="matrix(1, 0, 0, -1, 0, 202)" gradientUnits="userSpaceOnUse"><stop offset="0" stop-color="#f6a500"/><stop offset="1" stop-color="#f29100"/></linearGradient><linearGradient id="Naamloos_verloop_4" x1="53.37" y1="17.86" x2="97.54" y2="17.86" gradientTransform="matrix(1, 0, 0, -1, 0, 202)" gradientUnits="userSpaceOnUse"><stop offset="0" stop-color="#f29100"/><stop offset="1" stop-color="#d12f5f"/></linearGradient><linearGradient id="Naamloos_verloop_5" x1="106.76" y1="17.86" x2="150.93" y2="17.86" gradientTransform="matrix(1, 0, 0, -1, 0, 202)" gradientUnits="userSpaceOnUse"><stop offset="0" stop-color="#b4197c"/><stop offset="1" stop-color="#472ead"/></linearGradient><linearGradient id="Naamloos_verloop_6" x1="160.13" y1="17.86" x2="204.31" y2="17.86" gradientTransform="matrix(1, 0, 0, -1, 0, 202)" gradientUnits="userSpaceOnUse"><stop offset="0" stop-color="#2839ba"/><stop offset="1" stop-color="#3072b7"/></linearGradient><linearGradient id="Naamloos_verloop_7" x1="105.03" y1="46.8" x2="152.67" y2="60.73" gradientTransform="matrix(1, 0, 0, -1, 0, 202)" gradientUnits="userSpaceOnUse"><stop offset="0" stop-color="#b4197c"/><stop offset="1" stop-color="#373aac"/></linearGradient><linearGradient id="Naamloos_verloop_8" x1="51.81" y1="62.36" x2="99.1" y2="45.16" gradientTransform="matrix(1, 0, 0, -1, 0, 202)" gradientUnits="userSpaceOnUse"><stop offset="0" stop-color="#ffcb00"/><stop offset="1" stop-color="#d12f5f"/></linearGradient><linearGradient id="Naamloos_verloop_9" x1="57.11" y1="106.58" x2="93.81" y2="72.71" gradientTransform="matrix(1, 0, 0, -1, 0, 202)" gradientUnits="userSpaceOnUse"><stop offset="0" stop-color="#ffcf00"/><stop offset="1" stop-color="#ed743b"/></linearGradient></defs><title>deezer</title><path class="cls-1" d="M595.89,169c-19.16,0-34.92-11.55-35.2-31.83h90.73a76,76,0,0,0,1.78-16.33c0-36.63-25.07-60-62-60-39.44,0-66.48,30.71-66.48,68.73,0,42.25,29.3,70.43,70.7,70.43,31.27,0,53-15.78,62.26-41.7l-30.83-12C622.65,161.41,612.22,169,595.89,169Zm-4.78-79.15c16,0,27,8.73,27,22.26l-.29,1.12H560.69C564.07,98.59,576.47,89.86,591.11,89.86Z"/><path class="cls-1" d="M777.83,93.24V63.65H661.5v31h71L659.24,166.2v31H779.81v-32.4h-75.5Z"/><path class="cls-1" d="M995.11,106.76a47.18,47.18,0,0,1-.45,6.71h34.18a67.08,67.08,0,0,0,1.19-13.19c0-22.82-14.36-39.44-38.3-39.44-15.5,0-26.47,7.62-32.11,20V63.67h-36V197.1h36V111.26c0-13.52,7.33-21.12,18.59-21.12C988.35,90.14,995.11,96.9,995.11,106.76Z"/><path class="cls-1" d="M346,83.67c-8.18-13.81-23.39-22.83-42.25-22.83-36.63,0-63.38,28.18-63.38,70.15,0,41.4,26.49,69,64.22,69,18.87,0,34.09-8.18,42.82-22v19.14h34.64V0H346Zm-34.1,85.71c-20,0-35.58-14.64-35.58-38.3,0-24,15.5-39.14,35.58-39.14,19.43,0,35.49,15.21,35.49,39.14C347.39,154.65,331.33,169.38,311.9,169.38Z"/><path class="cls-1" d="M852.7,169c-19.16,0-34.93-11.55-35.21-31.83h90.73A74.75,74.75,0,0,0,910,120.85c0-36.63-25.07-60-62-60-39.44,0-66.48,30.71-66.48,68.73,0,42.25,29.3,70.43,70.7,70.43,31.28,0,53-15.78,62.27-41.7l-30.85-12C879.45,161.41,869.05,169,852.7,169Zm-4.79-79.15c16,0,27,8.73,27,22.26l-.28,1.12H817.45C820.87,98.59,833.25,89.86,847.91,89.86Z"/><path class="cls-1" d="M462.77,169c-19.17,0-34.93-11.55-35.21-31.83h90.73A74.05,74.05,0,0,0,520,120.85c0-36.63-25.07-60-62-60-39.44,0-66.48,30.71-66.48,68.73,0,42.25,29.3,70.43,70.7,70.43,31.28,0,53-15.78,62.27-41.7l-30.74-12C489.52,161.41,479.1,169,462.77,169ZM458,89.86c16,0,27,8.73,27,22.26l-.28,1.12H427.56C430.94,98.59,443.34,89.86,458,89.86Z"/><path class="cls-2" d="M204.31,63.57H160.13V89.34h44.18Z"/><path class="cls-3" d="M204.31,99.47H160.13v25.77h44.18Z"/><path class="cls-4" d="M204.31,135.35H160.13v25.78h44.18Z"/><path class="cls-5" d="M44.17,171.25H0V197H44.17Z"/><path class="cls-6" d="M97.54,171.25H53.37V197H97.54Z"/><path class="cls-7" d="M150.93,171.25H106.76V197h44.17Z"/><path class="cls-8" d="M204.31,171.25H160.13V197h44.18Z"/><path class="cls-9" d="M150.93,135.35H106.76v25.78h44.17Z"/><path class="cls-10" d="M97.54,135.35H53.37v25.78H97.54Z"/><path class="cls-11" d="M97.54,99.47H53.37v25.77H97.54Z"/><path d="M595.89,169c-19.16,0-34.92-11.55-35.2-31.83h90.73a76,76,0,0,0,1.78-16.33c0-36.63-25.07-60-62-60-39.44,0-66.48,30.71-66.48,68.73,0,42.25,29.3,70.43,70.7,70.43,31.27,0,53-15.78,62.26-41.7l-30.83-12C622.65,161.41,612.22,169,595.89,169Zm-4.78-79.15c16,0,27,8.73,27,22.26l-.29,1.12H560.69C564.07,98.59,576.47,89.86,591.11,89.86Z"/><path d="M777.83,93.24V63.65H661.5v31h71L659.24,166.2v31H779.81v-32.4h-75.5Z"/><path d="M995.11,106.76a47.18,47.18,0,0,1-.45,6.71h34.18a67.08,67.08,0,0,0,1.19-13.19c0-22.82-14.36-39.44-38.3-39.44-15.5,0-26.47,7.62-32.11,20V63.67h-36V197.1h36V111.26c0-13.52,7.33-21.12,18.59-21.12C988.35,90.14,995.11,96.9,995.11,106.76Z"/><path d="M346,83.67c-8.18-13.81-23.39-22.83-42.25-22.83-36.63,0-63.38,28.18-63.38,70.15,0,41.4,26.49,69,64.22,69,18.87,0,34.09-8.18,42.82-22v19.14h34.64V0H346Zm-34.1,85.71c-20,0-35.58-14.64-35.58-38.3,0-24,15.5-39.14,35.58-39.14,19.43,0,35.49,15.21,35.49,39.14C347.39,154.65,331.33,169.38,311.9,169.38Z"/><path d="M852.7,169c-19.16,0-34.93-11.55-35.21-31.83h90.73A74.75,74.75,0,0,0,910,120.85c0-36.63-25.07-60-62-60-39.44,0-66.48,30.71-66.48,68.73,0,42.25,29.3,70.43,70.7,70.43,31.28,0,53-15.78,62.27-41.7l-30.85-12C879.45,161.41,869.05,169,852.7,169Zm-4.79-79.15c16,0,27,8.73,27,22.26l-.28,1.12H817.45C820.87,98.59,833.25,89.86,847.91,89.86Z"/><path d="M462.77,169c-19.17,0-34.93-11.55-35.21-31.83h90.73A74.05,74.05,0,0,0,520,120.85c0-36.63-25.07-60-62-60-39.44,0-66.48,30.71-66.48,68.73,0,42.25,29.3,70.43,70.7,70.43,31.28,0,53-15.78,62.27-41.7l-30.74-12C489.52,161.41,479.1,169,462.77,169ZM458,89.86c16,0,27,8.73,27,22.26l-.28,1.12H427.56C430.94,98.59,443.34,89.86,458,89.86Z"/></svg>
