<svg id="Laag_1" width="110" height="33" data-name="Laag 1" xmlns="http://www.w3.org/2000/svg" viewBox="0 0 1345.71 200"><defs><style>.cls-1{fill:#97b41a;}</style></defs><title>junodownload</title><path class="cls-1" d="M398.57,39.12c12.17.41,23.79,2.57,34.38,8.7,16.08,9.29,26.18,22.9,28.69,41.51,1.72,12.78.15,25.23-6,36.74a58,58,0,0,1-19.3,20.8,60.54,60.54,0,0,1-27.07,9.84,79.27,79.27,0,0,1-36.92-4c-8.18-3-15.67-7.08-21.82-13.34-7.93-8.06-12.45-17.83-14.28-28.95-1.26-7.7-1.77-15.43-.3-23.1,2.63-13.67,8.94-25.37,19.88-34.21a58.53,58.53,0,0,1,26.94-12C388,40.19,393.29,39.77,398.57,39.12Zm30.16,59.14c-.19-2.52-.3-5.05-.6-7.56-1.78-14.76-12.25-25.52-26.43-27a29.39,29.39,0,0,0-31.16,20.49A52.2,52.2,0,0,0,369.2,107,30.37,30.37,0,0,0,376,122.8c7.19,8.31,16.34,11.56,27.17,10.12a27.38,27.38,0,0,0,20.51-13.47C427.59,113,428.67,105.74,428.73,98.26Z"/><path class="cls-1" d="M242.07,154.55h-32.5V42.74h30.12v16c1.42-1.44,2.49-2.51,3.55-3.6,12.65-13,28.07-17.39,45.77-14.89a42.83,42.83,0,0,1,20.3,8,27.59,27.59,0,0,1,10.95,18.43A132.7,132.7,0,0,1,321.7,85c.17,22.1.07,44.19.07,66.29v3.21h-32.7v-2.32c0-21.2,0-42.41-.14-63.61A60.19,60.19,0,0,0,287.76,77c-1.7-8.45-7.37-13.55-15.92-14.41-8.81-.89-16.56,1.66-22.83,8a19.82,19.82,0,0,0-5.64,12.59c-.6,7.71-1.15,15.43-1.24,23.16-.19,15.42-.06,30.85-.06,46.28Z"/><path class="cls-1" d="M75.65,42.68h32.68v2.53c.06,21.39.07,42.79.21,64.18a68.43,68.43,0,0,0,1,11.16c1.25,7.3,5.94,11.63,13,13.16a27.64,27.64,0,0,0,20.85-3.38c7.05-4.28,10.16-10.66,10.8-18.73,1.36-17.25.46-34.51.72-51.76.09-5.65,0-11.29,0-17.11h32.59V154.52H157.37V138.6c-2.39,2.29-4.41,4.42-6.63,6.32a50.36,50.36,0,0,1-23.05,11.25,52.81,52.81,0,0,1-25.6-.78c-13.24-3.83-22.48-11.68-24.89-25.87a94.42,94.42,0,0,1-1.48-15.09c-.15-23.11-.07-46.22-.07-69.33Z"/><path class="cls-1" d="M21.53,42.64H54.1c0,.48.12.91.12,1.33,0,36.5.06,73,0,109.49,0,8.17-.33,16.37-2.11,24.41-2.17,9.75-8.37,15.9-17.49,19.37A49.31,49.31,0,0,1,16.47,200c-4.76,0-9.53,0-14.29,0-.68,0-1.37-.05-2.18-.09V171.67c2.06.25,3.93.55,5.81.7,4,.31,7.84,0,11.26-2.42,2.16-1.56,3.66-3.5,3.8-6.24.25-4.74.63-9.5.63-14.25q.09-52.08,0-104.16Z"/><path class="cls-1" d="M827.05,154.61H816.77c-10-33.13-20-66.24-30.21-99.87-.65.81-1.2,1.23-1.36,1.76q-8,26.06-15.92,52.13l-11.34,37.25c-.88,2.89-1.74,5.79-2.61,8.71h-10.5Q727.27,99.15,709.64,43.48h9l31.16,101.18.44.08c.71-2.24,1.45-4.47,2.12-6.72q5.8-19.56,11.59-39.14,7.59-25.59,15.22-51.15c1.29-4.36,1.26-4.37,5.93-4.38,1.78,0,3.56-.09,5.33.06a2.1,2.1,0,0,1,1.52,1.15Q798.75,67,805.45,89.5q7,23.66,14.08,47.34c.78,2.59,1.65,5.16,2.48,7.74l.52,0,31-101.21h9.19Z"/><path class="cls-1" d="M1337.53,67.66V.27c2.56,0,4.88,0,7.21,0,.33,0,.78.63.93,1.06a4.74,4.74,0,0,1,0,1.51V154.57h-8V131.29l-.4-.1c-1.12,1.83-2.2,3.68-3.36,5.48-8.78,13.69-21.49,20.28-37.57,20.61a51.49,51.49,0,0,1-21.56-3.79c-7.75-3.3-13.51-8.71-18-15.72-7.51-11.69-10.32-24.58-10.13-38.3a88.12,88.12,0,0,1,1.82-18.32c2.89-12.83,8.39-24.14,19.26-32.12,6-4.36,12.86-6.51,20.12-7.44,9.33-1.19,18.46-.55,27.25,3.12,10.41,4.35,17.79,11.61,21.73,22.26.09.25.21.5.32.75Zm-82.69,28c-.08,15.83,2.8,27.92,10.26,38.78,3.88,5.65,8.74,10.07,15.06,12.56a42.87,42.87,0,0,0,27.24,1.59,31,31,0,0,0,15-8.44A52.61,52.61,0,0,0,1336,113c2.84-15.44,1.42-30.42-6-44.54-4.06-7.75-9.77-13.77-18.09-17a44.76,44.76,0,0,0-25-2.09c-11.78,2.2-20,8.93-25.37,19.41A61.2,61.2,0,0,0,1254.84,95.61Z"/><path class="cls-1" d="M569.8,67.58V59.46c0-19,0-38,0-56.95,0-1.72.42-2.4,2.21-2.27s3.78,0,5.81,0V154.56h-8v-23l-.38-.08c-1.18,1.91-2.33,3.83-3.54,5.71-7.08,10.94-17.07,17.6-29.92,19.49-12.49,1.83-24.59.46-35.42-6.7-7.88-5.22-12.7-12.92-16.35-21.42-5.14-12-6-24.51-4.92-37.31a69.64,69.64,0,0,1,4.9-21.2c3.35-8,8-15.11,15-20.39,6.27-4.72,13.52-7.11,21.24-8.06,10.61-1.32,20.88-.24,30.5,4.8,8.59,4.5,14.78,11.12,18,20.36a9.66,9.66,0,0,0,.46,1Zm-.24,32.05a65.46,65.46,0,0,0-6.23-29.19c-3.36-7-7.92-13-14.89-17a41.48,41.48,0,0,0-21.94-5,40,40,0,0,0-16,3.6C498.67,57.61,493.1,68,489.54,79.73c-2.35,7.79-2.75,15.84-2.33,23.93a59.42,59.42,0,0,0,7.45,26.44c4,7.18,9.19,13.21,16.92,16.47a42.66,42.66,0,0,0,21.95,3.15c10.62-1.26,19.28-5.83,25.42-14.72A59.66,59.66,0,0,0,569.56,99.63Z"/><path class="cls-1" d="M1151.53,78.06c-2.33,0-4.61.06-6.88-.06a1.68,1.68,0,0,1-1.11-1.2c1.41-14.77,6.81-27.48,23.38-33.06,8.56-2.88,17.44-3.13,26.34-2.41a50.6,50.6,0,0,1,19.09,5.38c6.74,3.43,10.45,9,11.69,16.31a61,61,0,0,1,.72,10c.07,20.77,0,41.53.08,62.29a34.74,34.74,0,0,0,.9,7.32c.76,3.43,2.57,4.74,6.12,4.73,2,0,4-.25,6.19-.39v6.7a2.35,2.35,0,0,1-.65.3c-5.05,1.07-10.1,1.35-14.87-1-3-1.48-4.41-4.38-5.17-7.43a44.62,44.62,0,0,1-.88-7.33,34.35,34.35,0,0,0-.42-5.15c-.47,1-.87,2-1.43,2.94-7.73,12.77-19.23,19.44-33.92,21a54.42,54.42,0,0,1-21.29-1.64c-7.6-2.26-14.36-5.86-18.24-13.2a30.14,30.14,0,0,1-3.39-13.21c-.19-5.56,0-11.06,2.23-16.25a26.41,26.41,0,0,1,12.46-13c8.89-4.7,18.51-6.29,28.42-6.67a130,130,0,0,0,24.85-3.19c7.17-1.68,10.57-5.8,10.69-13.16a54.17,54.17,0,0,0-.31-10c-.93-5.4-4.56-9.2-8.79-12.38a28.42,28.42,0,0,0-16.08-5.54c-6-.31-12-.34-17.94,1.3-10.46,2.91-17.13,9.64-20,20.08C1152.6,72.57,1152.16,75.2,1151.53,78.06Zm65.34,14.26-.76-.26a19.08,19.08,0,0,1-10.29,4.53c-8.51,1.29-17.07,2.22-25.63,3.18-6.54.74-13.15,1-19.35,3.58-5,2.06-9.23,5.14-12,10a26.41,26.41,0,0,0-2.87,9.75,23.33,23.33,0,0,0,13.73,24c6.54,2.81,13.36,3.38,20.32,2.82a40.31,40.31,0,0,0,15.66-4.17c10.84-5.62,17.87-14.38,19.72-26.3C1216.82,110.51,1216.45,101.36,1216.87,92.32Z"/><path class="cls-1" d="M702.26,98.81c-.17,10.36-1.85,20.36-6.29,29.75-4.07,8.61-9.59,16.12-17.73,21.31-9.79,6.23-20.67,8.11-32.06,7.2-9.61-.77-18.41-3.82-26-10a52.83,52.83,0,0,1-15.49-21.9c-4.53-11.38-5.5-23.22-4.14-35.32a60.42,60.42,0,0,1,13.08-32.07c7.3-9,16.83-14.09,28.2-15.91a56,56,0,0,1,27.75,2.37c11.44,4,19.23,12,24.88,22.44a61.33,61.33,0,0,1,6.64,19.87C701.74,90.58,701.89,94.71,702.26,98.81Zm-8.51-1.07a62.1,62.1,0,0,0-4.61-22.88c-3.18-7.58-7.49-14.38-14.31-19.22-9.22-6.56-19.64-8.15-30.61-6.64A35.22,35.22,0,0,0,620.9,61.91,54.76,54.76,0,0,0,609,89.59c-2,15.09.19,29.29,8.71,42.19,4.71,7.13,10.63,12.84,18.89,15.69a43.31,43.31,0,0,0,21.92,1.89c8.79-1.51,16.35-5.22,22.15-12.08C690,126.23,693.7,113.23,693.75,97.74Z"/><path class="cls-1" d="M1122.91,98.71c-.16,10.35-1.82,20.35-6.25,29.76-4.08,8.67-9.64,16.23-17.84,21.44-9.8,6.22-20.69,8.08-32.08,7.15-9.61-.78-18.41-3.85-26-10.07a52.72,52.72,0,0,1-15.39-21.75c-4.56-11.43-5.54-23.34-4.16-35.5A60.61,60.61,0,0,1,1034.1,58c7.35-9.18,17-14.32,28.48-16.16a56.22,56.22,0,0,1,27.56,2.36c11.46,3.94,19.26,12,24.93,22.38a61,61,0,0,1,6.7,20C1122.39,90.6,1122.55,94.67,1122.91,98.71Zm-94,1.77a55.24,55.24,0,0,0,9.37,31.28c4.71,7.13,10.62,12.85,18.88,15.71a43.43,43.43,0,0,0,21.92,1.89c8.05-1.37,15.15-4.55,20.75-10.54,7.93-8.48,12.33-18.68,13.86-30.17a64.7,64.7,0,0,0-3.93-33.77c-3.11-7.61-7.49-14.36-14.28-19.24-7.55-5.43-16.13-7.4-25.31-7.11-14.57.46-25.46,7.08-33,19.55C1031.41,77.7,1028.92,88.11,1028.93,100.48Z"/><path class="cls-1" d="M883.5,154.64c-2.48,0-4.69.06-6.9-.06-.42,0-.91-.74-1.17-1.23s0-.87,0-1.32q0-52.66,0-105.34V43.6h8.13V67.38c2-3.54,3.51-6.81,5.53-9.75,5.1-7.47,12.36-12,20.92-14.59a51.88,51.88,0,0,1,31.83.79c9.25,3.09,15.14,9.86,18.6,19,2.29,6.06,2.9,12.31,2.92,18.66.07,23.81,0,47.62,0,71.44,0,.49-.06,1-.1,1.61h-8.07c0-.7-.11-1.43-.11-2.16,0-23,.05-46,0-69,0-6.66-.57-13.2-3.38-19.5a23.6,23.6,0,0,0-16.4-14,44.26,44.26,0,0,0-24.78.49c-8.4,2.63-14.61,8.11-19.34,15.38-5.51,8.47-7.48,18-7.56,27.86-.17,19.3-.06,38.61-.06,57.91Z"/><path class="cls-1" d="M998.61.27V154.48h-8c0-.63-.12-1.3-.12-2q0-75,0-150.08c0-1.65.4-2.29,2.1-2.19C994.47.36,996.42.27,998.61.27Z"/><path class="cls-1" d="M21.58,0H54.16V27.23H21.58Z"/></svg>