<svg id="Laag_1" width="110" height="33" data-name="Laag 1" xmlns="http://www.w3.org/2000/svg" xmlns:xlink="http://www.w3.org/1999/xlink" viewBox="0 0 1764.96 200"><defs><style>.cls-1{fill:url(#Naamloos_verloop_11);}.cls-2{fill:url(#Naamloos_verloop_11-2);}.cls-3{fill:url(#Naamloos_verloop_11-3);}.cls-4{fill:url(#Naamloos_verloop_11-4);}.cls-5{fill:url(#Naamloos_verloop_11-5);}.cls-6{fill:url(#Naamloos_verloop_11-6);}.cls-7{fill:url(#Naamloos_verloop_11-7);}.cls-8{fill:url(#Naamloos_verloop_11-8);}.cls-9{fill:url(#Naamloos_verloop_11-9);}.cls-10{fill:url(#Naamloos_verloop_11-10);}.cls-11{fill:url(#Naamloos_verloop_11-11);}</style><linearGradient id="Naamloos_verloop_11" x1="96.84" y1="-1432.33" x2="96.84" y2="-1424.89" gradientTransform="translate(-2373.27 38506.68) scale(26.88)" gradientUnits="userSpaceOnUse"><stop offset="0" stop-color="#f79810"/><stop offset="1" stop-color="#f8310e"/></linearGradient><linearGradient id="Naamloos_verloop_11-2" x1="563.25" y1="45.08" x2="563.25" y2="177.85" gradientTransform="matrix(1, 0, 0, 1, 0, 0)" xlink:href="#Naamloos_verloop_11"/><linearGradient id="Naamloos_verloop_11-3" x1="688.99" y1="45.07" x2="688.99" y2="177.83" gradientTransform="matrix(1, 0, 0, 1, 0, 0)" xlink:href="#Naamloos_verloop_11"/><linearGradient id="Naamloos_verloop_11-4" x1="822.41" y1="47.09" x2="822.41" y2="177.85" gradientTransform="matrix(1, 0, 0, 1, 0, 0)" xlink:href="#Naamloos_verloop_11"/><linearGradient id="Naamloos_verloop_11-5" x1="958.85" y1="47.07" x2="958.85" y2="175.83" gradientTransform="matrix(1, 0, 0, 1, 0, 0)" xlink:href="#Naamloos_verloop_11"/><linearGradient id="Naamloos_verloop_11-6" x1="1096.23" y1="47.11" x2="1096.23" y2="175.83" gradientTransform="matrix(1, 0, 0, 1, 0, 0)" xlink:href="#Naamloos_verloop_11"/><linearGradient id="Naamloos_verloop_11-7" x1="1223.31" y1="45.08" x2="1223.31" y2="177.84" gradientTransform="matrix(1, 0, 0, 1, 0, 0)" xlink:href="#Naamloos_verloop_11"/><linearGradient id="Naamloos_verloop_11-8" x1="1336.43" y1="47.09" x2="1336.43" y2="175.84" gradientTransform="matrix(1, 0, 0, 1, 0, 0)" xlink:href="#Naamloos_verloop_11"/><linearGradient id="Naamloos_verloop_11-9" x1="1442.95" y1="45.07" x2="1442.95" y2="177.83" gradientTransform="matrix(1, 0, 0, 1, 0, 0)" xlink:href="#Naamloos_verloop_11"/><linearGradient id="Naamloos_verloop_11-10" x1="1576.38" y1="47.09" x2="1576.38" y2="177.85" gradientTransform="matrix(1, 0, 0, 1, 0, 0)" xlink:href="#Naamloos_verloop_11"/><linearGradient id="Naamloos_verloop_11-11" x1="1712.85" y1="47.11" x2="1712.85" y2="175.83" gradientTransform="matrix(1, 0, 0, 1, 0, 0)" xlink:href="#Naamloos_verloop_11"/></defs><title>Soundcloud horizontal</title><path class="cls-1" d="M5.22,119.62a1.89,1.89,0,0,0-1.85,1.8L0,147l3.37,25.14a1.88,1.88,0,0,0,1.85,1.79,1.92,1.92,0,0,0,1.83-1.78h0L11,147l-4-25.59a1.93,1.93,0,0,0-1.83-1.79Zm18.93-14a1.92,1.92,0,0,0-3.83,0S15.79,147,15.79,147l4.53,40.44a1.92,1.92,0,0,0,3.83,0L29.3,147l-5.15-41.36ZM95.49,67.49A3.55,3.55,0,0,0,92,70.94L88.4,147,92,196.21a3.54,3.54,0,0,0,3.48,3.43A3.58,3.58,0,0,0,99,196.2h0L103.05,147,99,70.94A3.58,3.58,0,0,0,95.49,67.49ZM58.57,93.94a2.77,2.77,0,0,0-2.71,2.66L51.8,147l4.06,48.78a2.71,2.71,0,0,0,5.41,0L65.88,147,61.27,96.58A2.78,2.78,0,0,0,58.57,93.94ZM133,199.64a4.33,4.33,0,0,0,4.27-4.24l3.54-48.34L137.29,45.75a4.28,4.28,0,0,0-8.55,0l-3.13,101.29,3.13,48.37A4.3,4.3,0,0,0,133,199.64Zm76.82.23a5.91,5.91,0,0,0,5.84-5.82v0l2.47-47-2.47-117a5.85,5.85,0,0,0-11.69,0l-2.2,117c0,.07,2.2,47,2.2,47A5.9,5.9,0,0,0,209.83,199.87Zm-38.7-.19a5.08,5.08,0,0,0,5.05-5v0l3-47.61-3-102a5.06,5.06,0,0,0-10.12,0l-2.67,102,2.68,47.61a5.05,5.05,0,0,0,5.06,5ZM77,199.24a3.15,3.15,0,0,0,3.09-3L84.4,147l-4.35-46.78a3.1,3.1,0,0,0-6.19,0L70,147l3.83,49.18A3.14,3.14,0,0,0,77,199.24Zm-36.63-2.7a2.38,2.38,0,0,0,2.31-2.25L47.52,147,42.64,97.93a2.31,2.31,0,0,0-4.62,0L33.72,147,38,194.28a2.36,2.36,0,0,0,2.31,2.26ZM190.4,43.33a5.47,5.47,0,0,0-5.46,5.43l-2.43,98.32,2.43,47.3a5.46,5.46,0,0,0,10.91,0v0l2.73-47.31-2.73-98.33a5.46,5.46,0,0,0-5.45-5.42ZM114.18,199.74a4,4,0,0,0,3.88-3.85l3.8-48.84-3.8-93.5a3.88,3.88,0,0,0-7.76,0l-3.37,93.5,3.37,48.86A3.93,3.93,0,0,0,114.18,199.74Zm42.48-4.61v0l3.26-48L156.66,42.34a4.67,4.67,0,0,0-9.33,0l-2.9,104.72,2.9,48.06a4.67,4.67,0,0,0,9.33,0v0ZM403.88,86.7A56.49,56.49,0,0,0,382,91.1,100,100,0,0,0,282.43,0,101.33,101.33,0,0,0,246.2,6.77c-4.28,1.65-5.42,3.36-5.45,6.66V193.21a6.85,6.85,0,0,0,6.11,6.7l157,.09a56.65,56.65,0,0,0,0-113.3ZM229.17,13.27a6.31,6.31,0,0,0-6.25,6.23l-2.55,127.6,2.56,46.31a6.24,6.24,0,0,0,12.47,0v.06l2.78-46.32L235.4,19.49a6.3,6.3,0,0,0-6.23-6.22Z"/><path class="cls-2" d="M570.51,97.12c-20.41-4.8-25.93-7.36-25.93-15.45,0-5.7,4.6-11.59,18.39-11.59,11.78,0,21,4.78,29.24,13.24l18.57-18c-12.14-12.69-26.85-20.23-46.88-20.23-25.4,0-46,14.35-46,37.71,0,25.37,16.56,32.92,40.28,38.42,24.27,5.51,28.69,9.2,28.69,17.48,0,9.75-7.2,14-22.43,14-12.33,0-23.91-4.22-32.93-14.73L513,154.5c9.74,14.35,28.52,23.35,50,23.35,35.15,0,50.59-16.55,50.59-41,0-28-22.62-34.95-43-39.73Z"/><path class="cls-3" d="M689,45.07c-35.1,0-55.89,27.22-55.89,66.4s20.79,66.36,55.89,66.36,55.92-27.18,55.92-66.36S724.11,45.07,689,45.07Zm0,107.21c-20.75,0-29.43-17.82-29.43-40.81S668.22,70.65,689,70.65s29.42,17.83,29.42,40.82S709.79,152.28,689,152.28Z"/><path class="cls-4" d="M848.8,119.38c0,20.59-10.13,33.29-26.48,33.29S796,139.61,796,119V47.09H770.26v72.3c0,37.49,21,58.46,52.06,58.46,32.73,0,52.23-21.52,52.23-58.83V47.09H848.8Z"/><path class="cls-5" d="M985.61,101.54c0,7.18.36,23.35.36,28.13-1.65-3.32-5.88-9.74-9-14.54L931.34,47.07H906.71V175.83H932.1V119.17c0-7.17-.37-23.35-.37-28.13,1.65,3.31,5.9,9.75,9,14.54L988,175.83h23V47.07H985.61v54.47Z"/><path class="cls-6" d="M1084.37,47.11h-40.29V175.83h38.42c33.14,0,65.88-19.11,65.88-64.36C1148.38,64.38,1121.15,47.11,1084.37,47.11Zm-1.87,103.74h-12.68V72.13h13.64c27.22,0,38.45,13,38.45,39.34C1121.91,135,1109.56,150.85,1082.5,150.85Z"/><path class="cls-7" d="M1228,70.63c11.59,0,19,5.16,23.55,14l23.91-11c-8.1-16.73-22.83-28.51-47.1-28.51-33.62,0-57.18,27.21-57.18,66.39,0,40.63,22.61,66.37,56.26,66.37,23.37,0,38.81-10.85,47.64-29.06l-21.69-12.88c-6.81,11.42-13.62,16.38-25.21,16.38-19.31,0-30.53-17.66-30.53-40.81,0-23.9,11.06-40.84,30.35-40.84Z"/><polygon class="cls-8" points="1323.49 47.09 1297.74 47.09 1297.74 175.84 1375.12 175.84 1375.12 150.44 1323.49 150.44 1323.49 47.09 1323.49 47.09"/><path class="cls-9" d="M1443,45.07c-35.14,0-55.93,27.22-55.93,66.4s20.79,66.36,55.93,66.36,55.88-27.18,55.88-66.36S1478.06,45.07,1443,45.07Zm0,107.21c-20.83,0-29.43-17.82-29.43-40.81s8.6-40.82,29.43-40.82,29.38,17.83,29.38,40.82S1463.71,152.28,1443,152.28Z"/><path class="cls-10" d="M1602.75,119.38c0,20.59-10.09,33.29-26.46,33.29S1550,139.61,1550,119V47.09h-25.75v72.3c0,37.49,21,58.46,52,58.46,32.74,0,52.22-21.52,52.22-58.83V47.09h-25.76v72.29Z"/><path class="cls-11" d="M1701,47.11h-40.25V175.83h38.42c33.1,0,65.84-19.11,65.84-64.36C1765,64.38,1737.75,47.11,1701,47.11Zm-1.83,103.74h-12.72V72.13h13.63c27.19,0,38.42,13,38.42,39.34C1738.47,135,1726.16,150.85,1699.14,150.85Z"/></svg>
