<svg id="Laag_1" width="110" height="33" data-name="Laag 1" xmlns="http://www.w3.org/2000/svg" xmlns:xlink="http://www.w3.org/1999/xlink" viewBox="0 0 350.85 200"><defs><style>.cls-1{fill:url(#Naamloos_verloop_11);}</style><linearGradient id="Naamloos_verloop_11" x1="94.8" y1="-1101.38" x2="94.8" y2="-1093.94" gradientTransform="translate(-2373.27 29609.31) scale(26.88)" gradientUnits="userSpaceOnUse"><stop offset="0" stop-color="#f79810"/><stop offset="1" stop-color="#f8310e"/></linearGradient></defs><title>Soundcloud</title><path class="cls-1" d="M4,91.13a1.44,1.44,0,0,0-1.4,1.37L0,112l2.57,19.15A1.44,1.44,0,0,0,4,132.51a1.46,1.46,0,0,0,1.4-1.36h0l3-19.16-3-19.49A1.47,1.47,0,0,0,4,91.13ZM18.4,80.48a1.46,1.46,0,0,0-2.92,0L12,112l3.45,30.81a1.46,1.46,0,0,0,2.92,0L22.32,112,18.4,80.48ZM72.75,51.42a2.71,2.71,0,0,0-2.65,2.63l-2.75,58,2.75,37.46a2.66,2.66,0,0,0,5.31,0h0L78.51,112l-3.1-58A2.73,2.73,0,0,0,72.75,51.42ZM44.62,71.57a2.1,2.1,0,0,0-2.06,2L39.47,112l3.09,37.16a2.06,2.06,0,0,0,4.12,0L50.19,112,46.68,73.58A2.11,2.11,0,0,0,44.62,71.57Zm56.72,80.53a3.3,3.3,0,0,0,3.25-3.23L107.28,112l-2.69-77.18a3.26,3.26,0,0,0-6.51,0L95.69,112l2.39,36.85A3.28,3.28,0,0,0,101.34,152.1Zm58.52.17a4.51,4.51,0,0,0,4.45-4.43v0l1.88-35.78-1.88-89.14a4.46,4.46,0,0,0-8.91,0L153.73,112c0,.06,1.67,35.83,1.67,35.83A4.5,4.5,0,0,0,159.86,152.27Zm-29.49-.14a3.88,3.88,0,0,0,3.86-3.84v0L136.51,112l-2.29-77.73a3.86,3.86,0,0,0-7.71,0l-2,77.74,2,36.27a3.86,3.86,0,0,0,3.85,3.81Zm-71.74-.34A2.42,2.42,0,0,0,61,149.47L64.3,112,61,76.36a2.36,2.36,0,0,0-4.72,0L53.36,112l2.91,37.47A2.4,2.4,0,0,0,58.63,151.79Zm-27.9-2A1.81,1.81,0,0,0,32.48,148l3.72-36L32.49,74.61a1.82,1.82,0,0,0-1.77-1.72A1.79,1.79,0,0,0,29,74.61L25.69,112,29,148a1.8,1.8,0,0,0,1.76,1.73ZM145.06,33a4.17,4.17,0,0,0-4.16,4.14L139,112.05l1.86,36a4.16,4.16,0,0,0,8.31,0v0l2.08-36-2.08-74.92A4.16,4.16,0,0,0,145.06,33ZM87,152.17a3,3,0,0,0,3-2.93L92.84,112,89.94,40.8a3,3,0,0,0-5.91,0L81.47,112,84,149.26A3,3,0,0,0,87,152.17Zm32.36-3.51v0l2.49-36.6-2.49-79.78a3.56,3.56,0,0,0-7.11,0L110,112l2.22,36.61a3.55,3.55,0,0,0,7.1,0v0ZM307.7,66.05A43.18,43.18,0,0,0,291,69.4,76.14,76.14,0,0,0,215.17,0a77.17,77.17,0,0,0-27.6,5.16c-3.26,1.26-4.13,2.56-4.16,5.07v137a5.23,5.23,0,0,0,4.66,5.1l119.62.07a43.16,43.16,0,0,0,0-86.32ZM174.59,10.11a4.81,4.81,0,0,0-4.76,4.74l-1.94,97.22,2,35.28a4.75,4.75,0,0,0,9.5,0v0l2.12-35.29-2.12-97.22a4.8,4.8,0,0,0-4.75-4.74ZM34.85,179.81c-5.11-1.2-6.49-1.85-6.49-3.87,0-1.42,1.15-2.9,4.6-2.9a9.84,9.84,0,0,1,7.32,3.31l4.64-4.5a15.38,15.38,0,0,0-11.72-5.06c-6.36,0-11.51,3.59-11.51,9.43,0,6.35,4.15,8.23,10.08,9.61s7.17,2.3,7.17,4.37c0,2.44-1.8,3.5-5.61,3.5A10.4,10.4,0,0,1,25.1,190l-4.65,4.14C22.89,197.75,27.59,200,33,200c8.79,0,12.66-4.14,12.66-10.26,0-7-5.66-8.74-10.77-9.93Zm29.63-13c-8.78,0-14,6.81-14,16.6S55.7,200,64.48,200s14-6.81,14-16.61S73.27,166.79,64.48,166.79Zm0,26.82c-5.19,0-7.36-4.47-7.36-10.21s2.17-10.22,7.36-10.22,7.36,4.47,7.36,10.22S69.69,193.61,64.48,193.61Zm40-8.24c0,5.16-2.53,8.33-6.62,8.33s-6.58-3.27-6.58-8.42v-18H84.82v18.09c0,9.38,5.25,14.62,13,14.62,8.19,0,13.06-5.38,13.06-14.72v-18h-6.44Zm34.23-4.46c0,1.8.09,5.84.09,7-.42-.83-1.47-2.44-2.26-3.64l-11.41-17H119v32.2h6.35V185.32c0-1.79-.09-5.84-.09-7,.41.82,1.47,2.43,2.25,3.63l11.83,17.57H145v-32.2h-6.35v13.62Zm24.7-13.62H153.31V199.5h9.61c8.29,0,16.48-4.79,16.48-16.11C179.4,171.61,172.59,167.29,163.39,167.29Zm-.47,26h-3.16V173.55h3.4c6.81,0,9.62,3.26,9.62,9.84C172.78,189.28,169.69,193.24,162.92,193.24Zm36.4-20.06a6.13,6.13,0,0,1,5.89,3.5l6-2.76c-2-4.18-5.71-7.13-11.78-7.13-8.41,0-14.31,6.81-14.31,16.6,0,10.17,5.66,16.61,14.08,16.61,5.84,0,9.7-2.72,11.91-7.27l-5.42-3.22c-1.71,2.85-3.41,4.09-6.31,4.09-4.83,0-7.64-4.41-7.64-10.21,0-6,2.77-10.21,7.6-10.21Zm23.88-5.89h-6.44V199.5h19.36v-6.36H223.2V167.29Zm29.89-.5c-8.79,0-14,6.81-14,16.6s5.2,16.61,14,16.61,14-6.81,14-16.61-5.2-16.6-14-16.6Zm0,26.82c-5.21,0-7.36-4.47-7.36-10.21s2.15-10.22,7.36-10.22,7.35,4.47,7.35,10.22S258.28,193.61,253.09,193.61Zm40-8.24c0,5.16-2.52,8.33-6.62,8.33s-6.58-3.27-6.58-8.42v-18h-6.44v18.09c0,9.38,5.25,14.62,13,14.62,8.19,0,13.07-5.38,13.07-14.72v-18h-6.45v18.08Zm24.57-18.08H307.56V199.5h9.61c8.28,0,16.47-4.79,16.47-16.11,0-11.78-6.81-16.1-16-16.1Zm-.46,26H314V173.55h3.41c6.8,0,9.61,3.26,9.61,9.84C327,189.28,323.93,193.24,317.17,193.24Z"/></svg>
