<svg id="Laag_1" width="110" height="33"  data-name="Laag 1" xmlns="http://www.w3.org/2000/svg" viewBox="0 0 666.83 200"><defs><style>.cls-1{fill:#1ed760;}</style></defs><title>Spotify</title><path class="cls-1" d="M100,0A100,100,0,1,0,200,100,100,100,0,0,0,100,0Zm45.86,144.24a6.24,6.24,0,0,1-8.57,2.07c-23.48-14.35-53-17.59-87.85-9.64a6.23,6.23,0,0,1-2.77-12.15c38.09-8.71,70.77-5,97.12,11.14A6.24,6.24,0,0,1,145.86,144.24ZM158.1,117a7.81,7.81,0,0,1-10.73,2.56c-26.87-16.52-67.85-21.3-99.64-11.65A7.8,7.8,0,1,1,43.2,93c36.32-11,81.47-5.68,112.33,13.29A7.8,7.8,0,0,1,158.1,117Zm1.05-28.36C126.92,69.51,73.75,67.75,43,77.09a9.35,9.35,0,1,1-5.43-17.9c35.32-10.72,94-8.65,131.15,13.38a9.35,9.35,0,1,1-9.55,16.08Z"/><path class="cls-1" d="M272.07,92.32c-17.27-4.12-20.34-7-20.34-13.08,0-5.74,5.4-9.6,13.43-9.6,7.78,0,15.5,2.93,23.6,9a1.16,1.16,0,0,0,.85.21,1.15,1.15,0,0,0,.75-.46l8.43-11.89a1.13,1.13,0,0,0-.22-1.54,51,51,0,0,0-33.16-11.48c-18.64,0-31.66,11.18-31.66,27.19,0,17.17,11.23,23.24,30.64,27.94,16.53,3.8,19.31,7,19.31,12.69,0,6.32-5.63,10.24-14.71,10.24-10.08,0-18.3-3.39-27.49-11.36a1.26,1.26,0,0,0-.83-.27,1.17,1.17,0,0,0-.78.4l-9.45,11.25a1.12,1.12,0,0,0,.11,1.57,56.37,56.37,0,0,0,38.06,14.6c20.09,0,33.07-11,33.07-28C301.68,105.37,293.1,97.43,272.07,92.32Z"/><path class="cls-1" d="M347.13,75.29c-8.71,0-15.85,3.43-21.74,10.46V77.84a1.14,1.14,0,0,0-1.13-1.14H308.8a1.14,1.14,0,0,0-1.13,1.14v87.89a1.14,1.14,0,0,0,1.13,1.13h15.46a1.14,1.14,0,0,0,1.13-1.13V138a27.77,27.77,0,0,0,21.74,9.84c16.18,0,32.56-12.45,32.56-36.26S363.31,75.29,347.13,75.29Zm14.58,36.27c0,12.12-7.47,20.58-18.16,20.58S325,123.3,325,111.56,333,91,343.55,91,361.71,99.63,361.71,111.56Z"/><path class="cls-1" d="M421.67,75.29c-20.84,0-37.16,16-37.16,36.53,0,20.26,16.21,36.14,36.91,36.14,20.91,0,37.28-16,37.28-36.4S442.44,75.29,421.67,75.29Zm0,57c-11.08,0-19.44-8.9-19.44-20.71S410.3,91.1,421.42,91.1,441,100,441,111.82,432.86,132.27,421.67,132.27Z"/><path class="cls-1" d="M503.19,76.7h-17V59.31a1.12,1.12,0,0,0-1.13-1.13H469.6a1.13,1.13,0,0,0-1.14,1.13V76.7H461a1.13,1.13,0,0,0-1.13,1.14V91.12A1.13,1.13,0,0,0,461,92.26h7.43v34.38c0,13.89,6.92,20.93,20.55,20.93A28.21,28.21,0,0,0,503.5,144a1.14,1.14,0,0,0,.57-1V130.34a1.14,1.14,0,0,0-1.64-1,19.47,19.47,0,0,1-9.07,2.19c-5,0-7.18-2.25-7.18-7.3V92.26h17a1.13,1.13,0,0,0,1.13-1.14V77.84A1.13,1.13,0,0,0,503.19,76.7Z"/><path class="cls-1" d="M562.47,76.77V74.63c0-6.28,2.41-9.08,7.81-9.08a26.27,26.27,0,0,1,8.71,1.6,1.12,1.12,0,0,0,1-.15,1.14,1.14,0,0,0,.47-.92v-13a1.14,1.14,0,0,0-.8-1.09,42.48,42.48,0,0,0-12.85-1.84c-14.28,0-21.83,8-21.83,23.24v3.28h-7.42a1.13,1.13,0,0,0-1.14,1.13V91.12a1.14,1.14,0,0,0,1.14,1.14H545v53a1.14,1.14,0,0,0,1.13,1.13h15.46a1.14,1.14,0,0,0,1.13-1.13v-53h14.44l22.11,53c-2.51,5.57-5,6.68-8.35,6.68a17.76,17.76,0,0,1-8.52-2.42,1.18,1.18,0,0,0-.9-.08,1.09,1.09,0,0,0-.67.61l-5.24,11.49a1.13,1.13,0,0,0,.48,1.47,32.58,32.58,0,0,0,16.51,4.22c11.42,0,17.73-5.31,23.29-19.62l26.82-69.31a1.12,1.12,0,0,0-.11-1,1.17,1.17,0,0,0-.94-.49H625.55a1.14,1.14,0,0,0-1.07.76L608,124.62,589.93,77.5a1.11,1.11,0,0,0-1-.73Z"/><rect class="cls-1" x="511.51" y="76.7" width="17.73" height="69.72" rx="1.13"/><path class="cls-1" d="M520.45,46a11.09,11.09,0,1,0,11.09,11.08A11.09,11.09,0,0,0,520.45,46Z"/><path class="cls-1" d="M655.89,98.39a10.91,10.91,0,1,1,10.94-10.94A10.84,10.84,0,0,1,655.89,98.39ZM656,77.65a9.83,9.83,0,1,0,9.74,9.8A9.73,9.73,0,0,0,656,77.65Zm2.41,10.91,3.08,4.31h-2.59l-2.77-4h-2.39v4h-2.17V81.45h5.09c2.66,0,4.4,1.36,4.4,3.65A3.39,3.39,0,0,1,658.36,88.56Zm-1.83-5.15h-2.84V87h2.84c1.41,0,2.25-.69,2.25-1.8S657.94,83.41,656.53,83.41Z"/></svg>