<svg id="Laag_1" width="110" height="33" data-name="Laag 1" xmlns="http://www.w3.org/2000/svg" viewBox="0 0 1215.33 200"><defs><style>.cls-1{fill:#40a0ff;}.cls-1,.cls-2{fill-rule:evenodd;}.cls-2{fill:#808285;}</style></defs><title>Traxsource</title><g id="icons"><path class="cls-1" d="M191.88,91.18A95.23,95.23,0,0,0,192.72,78C193.33,34.05,155.18.29,112.65.05,102.24,0,97,0,86.62.05,44.07.29,6.05,33.63,6.55,78a105.33,105.33,0,0,0,.77,13.33A44.91,44.91,0,0,0,.24,121.23l.35,3.36c2.35,22.28,19.21,38.76,37.68,36.82l1-.11C51.86,185,74.16,199.9,99.62,200h.06a3.73,3.73,0,0,0,3.74-3.74V182.94a3.75,3.75,0,0,0-3.73-3.75v0c-25.87,0-49.18-31.62-49.18-63.46,0-31.45,23.31-63.61,49.07-63.61h.06a3.74,3.74,0,0,0,3.74-3.75V35.19a3.74,3.74,0,0,0-3.69-3.74v0C71.93,31.5,47.9,49.25,36.12,76.68l-6.68.7c-.35,0-.68.11-1,.17-1.54-33.26,29.11-57.28,62-57.45,8.4-.05,12.6-.05,21,0,32.81.18,61.07,24.26,60,57.54-.51-.09-1-.21-1.53-.25l-10.69-1.13h0l-.1,0A4.22,4.22,0,0,0,154.42,80l-7.95,75.64a4.22,4.22,0,0,0,3.76,4.64h.1v0L161,161.41c18.46,1.94,35.33-14.54,37.67-36.82l.36-3.36A44.9,44.9,0,0,0,191.88,91.18Z"/><polygon class="cls-2" points="269.67 84.83 269.67 157.95 245.38 157.95 245.38 84.83 208.96 84.83 208.96 60.55 306.09 60.55 306.09 84.83 269.67 84.83"/><path class="cls-2" d="M396.47,130.16c-3.23-3.24-6.47-6.75-10-10.25a31.2,31.2,0,0,0,14.84-10.8A28.8,28.8,0,0,0,407.53,91a29.69,29.69,0,0,0-9.17-21.32,28.62,28.62,0,0,0-21.31-9.16H310.14V158h24.28V121.53h19.69c1.35,1.62,3,3,4.59,4.59,4.05,4.31,8.64,8.9,13.5,13.75,6.47,6.74,11.32,11.33,14.29,14.3a12.09,12.09,0,0,0,8.63,3.78,11.66,11.66,0,0,0,8.64-3.78,13.17,13.17,0,0,0,0-17.28C402.14,135.55,399.71,133.39,396.47,130.16ZM380.82,95.35A5.33,5.33,0,0,1,377.05,97H334.42V84.83h42.63a5.65,5.65,0,0,1,3.77,1.89A5.75,5.75,0,0,1,382.71,91,5,5,0,0,1,380.82,95.35Z"/><path class="cls-2" d="M493.88,74.85c-9.44-9.45-20.78-14.29-34-14.29a47.24,47.24,0,0,0-34.54,14.29c-9.44,9.71-14,21.05-14,34.26V158h24.29V133.39h48.55V158h24V109.11C508.17,95.89,503.32,84.56,493.88,74.85ZM435.6,109.1a23.07,23.07,0,0,1,7-17,22.6,22.6,0,0,1,17.28-7.29,23.23,23.23,0,0,1,17,7.29,25.57,25.57,0,0,1,7.28,17Z"/><path class="cls-2" d="M588.58,154.17c-4.86-4.59-9.44-9.17-14-13.76s-9.18-9.18-13.76-14c-4.59,4.86-9.44,9.45-14,14s-9.18,9.17-14,13.76a11.06,11.06,0,0,1-8.37,3.78,11.23,11.23,0,0,1-8.64-3.78,12.39,12.39,0,0,1,0-17.28l13.76-13.75,14-14c-4.86-4.58-9.45-9.17-14-13.48-4.59-4.59-9.18-9.44-13.76-14.31A10.78,10.78,0,0,1,512.21,73a12,12,0,0,1,3.51-8.9,11,11,0,0,1,8.64-3.5,12,12,0,0,1,8.37,3.77l14,14c4.59,4.59,9.44,9.18,14,13.76l13.76-13.76,14-14c2.69-2.43,5.39-3.77,8.63-3.77a11.41,11.41,0,0,1,8.63,3.5,12.91,12.91,0,0,1,3.24,8.9,11.57,11.57,0,0,1-3.24,8.35c-4.85,4.87-9.44,9.72-14,14.31-4.58,4.31-9.16,8.9-13.75,13.48,4.59,4.86,9.17,9.45,13.75,14s9.18,9.17,14,13.75a13.14,13.14,0,0,1,0,17.28,11.63,11.63,0,0,1-8.63,3.78C594,158,591.27,156.6,588.58,154.17Z"/><path class="cls-2" d="M643.89,121.26a29.09,29.09,0,0,1-21.58-8.91A28.47,28.47,0,0,1,613.4,91a29.35,29.35,0,0,1,8.91-21.32,28.36,28.36,0,0,1,21.58-9.16h66.64V84.83H643.89c-4.32,0-6.21,2.16-6.21,6.21a5.52,5.52,0,0,0,1.61,4A6.47,6.47,0,0,0,643.88,97H680a28.94,28.94,0,0,1,21.32,8.9c5.93,6.21,8.91,13.22,8.91,21.59A29.55,29.55,0,0,1,701.35,149,28.94,28.94,0,0,1,680,158H613.39V133.13H680a6.42,6.42,0,0,0,4-1.63,5.74,5.74,0,0,0,1.89-4,6.37,6.37,0,0,0-1.89-4.32,5.59,5.59,0,0,0-4-1.89H643.89Z"/><path class="cls-2" d="M797.13,74.85a46.6,46.6,0,0,0-34.26-14.29A47.1,47.1,0,0,0,728.6,74.85c-9.45,9.71-14.3,21.05-14.3,34.26A48.82,48.82,0,0,0,762.87,158a46.67,46.67,0,0,0,34.26-14.3c9.45-9.44,13.76-21,13.76-34.54C810.89,95.89,806.58,84.56,797.13,74.85Zm-17,51.53a24.28,24.28,0,0,1-41.55-17.27,24.09,24.09,0,0,1,7-17,24.55,24.55,0,0,1,41.82,17A22.64,22.64,0,0,1,780.14,126.38Z"/><path class="cls-2" d="M1002.46,130.16c-3.24-3.24-6.48-6.75-10-10.25a33.29,33.29,0,0,0,15.11-10.8A30.26,30.26,0,0,0,1013.51,91a28.65,28.65,0,0,0-9.17-21.32A28.63,28.63,0,0,0,983,60.56H916.11V158H940.4V121.53h19.69c1.36,1.62,3,3,4.59,4.59,4.32,4.31,8.64,8.9,13.5,13.75l14.3,14.3c2.69,2.43,5.4,3.78,8.63,3.78a11.67,11.67,0,0,0,8.65-3.78,12.41,12.41,0,0,0,0-17.28C1008.11,135.55,1005.69,133.39,1002.46,130.16ZM986.8,95.35A5.33,5.33,0,0,1,983,97H940.4V84.83H983a5.67,5.67,0,0,1,3.78,1.89A5.75,5.75,0,0,1,988.69,91,5,5,0,0,1,986.8,95.35Z"/><path class="cls-2" d="M1065.85,158a46.64,46.64,0,0,1-34.26-14.3c-9.72-9.44-14.31-21-14.31-34.54,0-13.21,4.59-24.54,14.31-34.26a46.59,46.59,0,0,1,34.26-14.29h48.3V84.83h-48.3a23,23,0,0,0-17.26,7.29,24.08,24.08,0,0,0-7,17,23.38,23.38,0,0,0,7,17.27c4.58,4.86,10.52,7,17.26,7h48.3V158h-48.3Z"/><path class="cls-2" d="M1142.75,133.39h72.58V158H1118.2V60.55h97.13V84.82h-72.58V97h72.58v24.29h-72.58Z"/><path class="cls-2" d="M887.57,60.55V109.1a23.38,23.38,0,0,1-7,17.27c-4.53,4.8-10.38,6.94-17,7s-12.51-2.2-17-7a23.38,23.38,0,0,1-7-17.27V60.55H815.2V109.1c0,13.5,4.58,25.1,14,34.54,9.64,9.39,20.9,14.23,34.28,14.29h.9v-.06c13-.26,24-5.07,33.4-14.24,9.44-9.44,14-21,14-34.54V60.55Z"/></g></svg>
