<svg id="Laag_1" width="110" height="33" data-name="Laag 1" xmlns="http://www.w3.org/2000/svg" viewBox="0 0 895.88 200"><defs><style>.cls-1{fill:red;}.cls-2{fill:#fff;}.cls-3{fill:#282828;}</style></defs><title>YouTube</title><path class="cls-1" d="M279.74,31.23A35.77,35.77,0,0,0,254.48,6C232.2,0,142.86,0,142.86,0S53.51,0,31.23,6A35.81,35.81,0,0,0,6,31.23C0,53.51,0,100,0,100s0,46.49,6,68.77A35.81,35.81,0,0,0,31.23,194c22.28,6,111.63,6,111.63,6s89.34,0,111.62-6a35.77,35.77,0,0,0,25.26-25.26c6-22.28,6-68.77,6-68.77S285.71,53.51,279.74,31.23Z"/><polygon class="cls-2" points="114.29 142.86 188.51 100 114.29 57.14 114.29 142.86"/><path class="cls-3" d="M414.72,182q-8.49-5.72-12.06-17.78t-3.58-32.08V113.91q0-20.23,4.09-32.49t12.77-17.88q8.69-5.61,22.78-5.61,13.89,0,22.27,5.72t12.26,17.87q3.88,12.17,3.88,32.39v18.18q0,20-3.78,32.18T461.1,182.05q-8.49,5.61-23,5.62Q423.19,187.67,414.72,182Zm31.66-19.62q2.36-6.12,2.35-20v-39q0-13.48-2.35-19.71t-8.27-6.23q-5.73,0-8.07,6.23t-2.35,19.71v39q0,13.89,2.25,20t8.17,6.13Q444,168.46,446.38,162.33Z"/><path class="cls-3" d="M848.68,132.39v6.34a166.2,166.2,0,0,0,.72,18.08q.71,6,3,8.78t6.94,2.76q6.33,0,8.69-4.9t2.55-16.35l24.32,1.43a40.09,40.09,0,0,1,.2,4.5q0,17.37-9.5,25.95t-26.87,8.58q-20.84,0-29.22-13.08T821.1,134V112.16Q821.1,84,829.78,71t29.73-13q14.5,0,22.27,5.31t10.93,16.55q3.16,11.24,3.17,31.06v21.45Zm3.58-52.71c-1.43,1.77-2.39,4.66-2.86,8.68a168.75,168.75,0,0,0-.72,18.29v9h20.64v-9a152.9,152.9,0,0,0-.82-18.29c-.55-4.15-1.53-7.08-3-8.79S861.89,77,858.9,77,853.69,77.91,852.26,79.68Z"/><path class="cls-3" d="M346.06,130.05,314,14.2h28l11.24,52.51q4.29,19.41,6.33,33.1h.82q1.42-9.81,6.33-32.9L378.34,14.2h28L373.84,130.05v55.58H346.06Z"/><path class="cls-3" d="M568.17,60.38V185.62H546.11l-2.45-15.32H543q-9,17.37-27,17.37-12.47,0-18.39-8.17T491.76,154V60.38H520v91.94q0,8.38,1.84,12a6.36,6.36,0,0,0,6.13,3.58A12.5,12.5,0,0,0,535,165.6a13.9,13.9,0,0,0,5-5.72V60.38Z"/><path class="cls-3" d="M712.8,60.38V185.62H690.74l-2.46-15.32h-.61q-9,17.37-27,17.37-12.47,0-18.39-8.17T636.39,154V60.38h28.19v91.94q0,8.38,1.84,12a6.36,6.36,0,0,0,6.13,3.58,12.52,12.52,0,0,0,7.05-2.25,13.9,13.9,0,0,0,5-5.72V60.38Z"/><path class="cls-3" d="M644.79,36.88h-28V185.62H589.22V36.88h-28V14.2h83.56Z"/><path class="cls-3" d="M806.12,80.4q-2.55-11.85-8.27-17.16t-15.73-5.32a26.07,26.07,0,0,0-14.51,4.4,29.77,29.77,0,0,0-10.42,11.54H757v-66H729.81V185.62H753.1L756,173.77h.62a23.88,23.88,0,0,0,9.8,10,29.11,29.11,0,0,0,14.51,3.67q14.29,0,21-13.18t6.75-41.17V113.29Q808.68,92.26,806.12,80.4Zm-25.84,51.09a157.94,157.94,0,0,1-1.13,21.45q-1.12,7.77-3.78,11a8.73,8.73,0,0,1-7.15,3.27,13.05,13.05,0,0,1-6.43-1.63A12.36,12.36,0,0,1,757,160.7V89.6a17.89,17.89,0,0,1,4.91-8.38A10.86,10.86,0,0,1,769.45,78a7.63,7.63,0,0,1,6.64,3.38q2.34,3.36,3.27,11.34a212.22,212.22,0,0,1,.92,22.67Z"/></svg>