<?xml version="1.0" encoding="UTF-8" standalone="no"?>
<svg
   xmlns:dc="http://purl.org/dc/elements/1.1/"
   xmlns:cc="http://creativecommons.org/ns#"
   xmlns:rdf="http://www.w3.org/1999/02/22-rdf-syntax-ns#"
   xmlns:svg="http://www.w3.org/2000/svg"
   xmlns="http://www.w3.org/2000/svg"
   id="svg12"
   xml:space="preserve"
   enable-background="new 0 0 73 73"
   viewBox="0 0 73 73"
   height="73px"
   width="73px"
   y="0px"
   x="0px"
   version="1.1"><metadata
     id="metadata18"><rdf:RDF><cc:Work
         rdf:about=""><dc:format>image/svg+xml</dc:format><dc:type
           rdf:resource="http://purl.org/dc/dcmitype/StillImage" /></cc:Work></rdf:RDF></metadata><defs
     id="defs16" /><g
     id="Layer_3" /><g
     id="Layer_2"><path
       id="path3"
       d="M36.501,6.778   c16.433,0,29.753,13.307,29.753,29.721s-13.32,29.724-29.753,29.724c-16.433,0-29.754-13.31-29.754-29.724   C6.747,20.084,20.068,6.778,36.501,6.778z"
       stroke-miterlimit="10"
       stroke-width="4"
       stroke="#FFFFFF"
       fill="none" /><g
       id="g9"><path
         id="path5"
         d="M29.564,22.629c2.188,0,3.963,1.657,3.963,3.699v20.343c0,2.043-1.774,3.699-3.963,3.699    s-3.963-1.656-3.963-3.699V26.328C25.602,24.286,27.376,22.629,29.564,22.629z"
         fill="#FFFFFF" /><path
         id="path7"
         d="M43.436,22.629c2.188,0,3.963,1.657,3.963,3.699v20.343c0,2.043-1.773,3.699-3.963,3.699    c-2.188,0-3.963-1.656-3.963-3.699V26.328C39.473,24.286,41.246,22.629,43.436,22.629z"
         fill="#FFFFFF" /></g></g></svg>